<?xml version="1.0" encoding="UTF-8"?>
<svg width="21px" height="19px" viewBox="0 0 21 19" version="1.1" xmlns="http://www.w3.org/2000/svg" xmlns:xlink="http://www.w3.org/1999/xlink">
    <!-- Generator: Sketch 48.2 (47327) - http://www.bohemiancoding.com/sketch -->
    <title>Fill 1</title>
    <desc>Created with Sketch.</desc>
    <defs></defs>
    <g id="Home-Copy-2" stroke="none" stroke-width="1" fill="none" fill-rule="evenodd" transform="translate(-97.000000, -3071.000000)">
        <g id="Group-13-Copy" transform="translate(107.500000, 3080.500000) scale(-1, 1) translate(-107.500000, -3080.500000) translate(82.000000, 3055.000000)" fill="#0595C0">
            <g id="blue-left-arrow">
                <path d="M35.1004514,26.5544874 C35.1341137,26.5201518 35.1657563,26.4858163 35.1947059,26.4494609 C35.2108638,26.43061 35.2263485,26.4097394 35.2398134,26.3915617 C35.2472191,26.3807898 35.2526051,26.3727108 35.2606841,26.3626121 C35.47343,26.078502 35.6000004,25.7257208 35.6000004,25.3419702 C35.6000004,24.9582197 35.47343,24.6081314 35.2606841,24.3213283 C35.2526051,24.3085367 35.2425064,24.2950717 35.2317345,24.28228 C35.2182695,24.2661221 35.2081708,24.2506374 35.1947059,24.2344795 C35.1657563,24.1981242 35.1341137,24.1610956 35.0977584,24.1267601 L27.4739136,16.5029152 C26.8026867,15.8323616 25.7167399,15.8323616 25.0461862,16.5029152 C24.3756326,17.1734689 24.3756326,18.2594157 25.0461862,18.9306426 L29.740735,23.6272111 L16.7174522,23.6272111 C15.7681744,23.6272111 15,24.3953855 15,25.3446632 C15,26.291248 15.7681744,27.0594224 16.7174522,27.0621154 L29.740735,27.0621154 L25.0461862,31.7559909 C24.3756326,32.4265445 24.3756326,33.5158576 25.0461862,34.1864112 C25.7167399,34.8569649 26.8026867,34.8569649 27.4739136,34.1864112 L35.1004514,26.5598734 C35.0977584,26.5571804 35.1004514,26.5544874 35.1004514,26.5544874 Z" id="Fill-1"></path>
            </g>
        </g>
    </g>
</svg>