<svg width="200" height="220" viewBox="0 0 200 220" xmlns="http://www.w3.org/2000/svg"><g fill="#1D324F" fill-rule="nonzero"><path d="M193.628 68.137c1.81-2.329 2.364-5.615.524-8.721l-1.614-2.726c-1.844-3.112-5.029-4.25-7.981-3.835l6.614 3.668-3.92 6.863-6.9 3.97-1.614-2.725 6.9-3.97h7.99v7.476zm-9.071 98.735c2.952.416 6.137-.723 7.98-3.835l1.615-2.725c1.84-3.106 1.286-6.393-.524-8.722v7.477h-7.99l-6.9-3.97 1.613-2.725 6.9 3.97 3.92 6.862-6.614 3.668zm-93.283 41.963c1.18 2.589 3.726 4.584 7.266 4.584h3.093c3.54 0 6.086-1.995 7.266-4.584l-6.44 3.572-3.92-6.862v-7.875h3.094v7.875l-3.919 6.862-6.44-3.572zM6.545 151.59c-1.81 2.329-2.364 5.616-.524 8.722l1.614 2.725c1.844 3.112 5.029 4.25 7.981 3.835l-6.614-3.668 3.92-6.862 6.9-3.97 1.614 2.725-6.9 3.97h-7.99v-7.477zm9.071-98.735c-2.952-.416-6.137.723-7.98 3.835L6.02 59.416c-1.84 3.106-1.286 6.392.524 8.721v-7.476h7.99l6.901 3.97-1.614 2.725-6.9-3.97-3.92-6.863 6.614-3.668zM108.9 10.893c-1.18-2.59-3.726-4.585-7.266-4.585H98.54c-3.54 0-6.086 1.995-7.266 4.585l6.44-3.573 3.92 6.862v7.875H98.54v-7.875l3.919-6.862 6.44 3.573zM94.621 1.87L5.909 51.073l-1.614.895C1.78 53.363.223 55.987.223 58.831v102.066c0 2.844 1.557 5.467 4.072 6.862l1.614.895 88.712 49.203 1.547.858a8.093 8.093 0 0 0 7.837 0l1.547-.858 88.712-49.203 1.614-.895c2.515-1.395 4.072-4.018 4.072-6.863V58.831c0-2.844-1.557-5.468-4.072-6.863l-1.614-.895L105.552 1.87l-1.547-.858a8.093 8.093 0 0 0-7.837 0l-1.547.858zm5.466 6.004l-3.92 6.863 1.547.858 88.712 49.203 1.615.895 3.919-6.862h-7.99v102.066h7.99l-3.92-6.863-1.614.896-88.712 49.203-1.546.858 3.919 6.862 3.918-6.862-1.546-.858-88.712-49.203-1.615-.896-3.919 6.862h7.99V58.831h-7.99l3.92 6.862 1.614-.895 88.712-49.203 1.546-.858-3.918-6.863z"/><path d="M99.12 212.486l1.813.001a3.343 3.343 0 0 0 2.878-1.621l86.861-145.823a3.248 3.248 0 0 0-.488-3.955l-1.423-1.44a3.37 3.37 0 0 0-4.02-.57L9.522 156.068c-1.91 1.057-2.283 3.612-.753 5.157l1.424 1.439c1.53 1.545 4.132 1.24 5.251-.616l87.609-145.226h-5.73l87.61 145.227c1.12 1.857 3.722 2.161 5.252.614l1.423-1.44c1.525-1.542 1.156-4.09-.746-5.15L13.832 57.357a3.37 3.37 0 0 0-4.027.564l-1.424 1.438a3.248 3.248 0 0 0-.486 3.963l88.358 147.549c.599 1 1.69 1.614 2.868 1.615zm.006-6.569l-.003 3.285 2.871-1.67L13.637 59.984l-2.871 1.67 2.385 2.294 1.424-1.438-2.385-2.295-1.641 2.859 177.03 98.716 1.642-2.859-2.388-2.291-1.423 1.44 2.387 2.291 2.866-1.678-87.61-145.228c-1.292-2.141-4.439-2.141-5.73 0L9.712 158.691l2.866 1.679 2.386-2.294-1.424-1.438-2.386 2.293 1.632 2.864 175.22-96.99-1.633-2.864-2.387 2.293 1.423 1.439 2.387-2.293-2.874-1.662L98.06 207.54l2.875 1.663.003-3.285h-1.813zM9.522 64.817l175.087 96.9c1.503.833 3.402.398 4.38-1.003l1.29-1.85a3.244 3.244 0 0 0 .117-3.541l-86.595-143.32a3.343 3.343 0 0 0-2.867-1.604l-1.812.002a3.344 3.344 0 0 0-2.858 1.598L7.905 157.545a3.248 3.248 0 0 0 .475 3.98l1.424 1.439a3.37 3.37 0 0 0 4.047.553l174.599-98.89-1.662-2.848-2.328 2.35.743.715 2.329-2.35-2.86-1.687-88.408 145.57c-1.33 2.188.27 4.968 2.857 4.97l1.813.002c2.581.002 4.185-2.763 2.873-4.954L15.45 58.847c-1.116-1.863-3.723-2.173-5.256-.626L8.769 59.66c-1.53 1.545-1.157 4.1.753 5.158zm1.633-2.863l2.385 2.294 1.424-1.438-2.385-2.294-2.87 1.669 88.357 147.548 2.87-1.669.003-3.284-1.812-.002-.003 3.285 2.86 1.687 88.408-145.57a3.249 3.249 0 0 0-.531-4.036l-.744-.715a3.37 3.37 0 0 0-3.99-.498L10.53 157.822l1.661 2.848 2.386-2.294-1.424-1.438-2.386 2.293 2.86 1.687 88.359-145.546-2.86-1.687.002 3.285 1.812-.001-.002-3.285-2.865 1.68 86.596 143.32 2.864-1.68-2.747-1.861-1.29 1.85 2.746 1.861 1.632-2.864-175.086-96.9-1.632 2.864z"/></g></svg>
